<svg xmlns="http://www.w3.org/2000/svg" viewBox="0 0 500 500">
  <!-- Fondo de iluminaci칩n tenue -->
  <defs>
    <radialGradient id="lightGlow" cx="50%" cy="30%" r="70%" fx="50%" fy="30%">
      <stop offset="0%" stop-color="rgba(255,255,255,0.15)" />
      <stop offset="100%" stop-color="rgba(0,0,0,0)" />
    </radialGradient>
  </defs>
  
  <!-- Iluminaci칩n ambiental -->
  <rect x="0" y="0" width="500" height="500" fill="url(#lightGlow)" />
  
  <!-- Barras verticales principales con efecto met치lico -->
  <g>
    <!-- Barra 1 -->
    <rect x="45" y="0" width="14" height="500" fill="#111111" />
    <rect x="47" y="0" width="3" height="500" fill="#444444" opacity="0.6" />
    <rect x="42" y="0" width="1" height="500" fill="#000000" opacity="0.8" />

    <!-- Barra 2 -->
    <rect x="105" y="0" width="14" height="500" fill="#1a1a1a" />
    <rect x="107" y="0" width="3" height="500" fill="#444444" opacity="0.6" />
    <rect x="102" y="0" width="1" height="500" fill="#000000" opacity="0.8" />
    
    <!-- Barra 3 -->
    <rect x="165" y="0" width="14" height="500" fill="#111111" />
    <rect x="167" y="0" width="3" height="500" fill="#444444" opacity="0.6" />
    <rect x="162" y="0" width="1" height="500" fill="#000000" opacity="0.8" />
    
    <!-- Barra 4 -->
    <rect x="225" y="0" width="14" height="500" fill="#1a1a1a" />
    <rect x="227" y="0" width="3" height="500" fill="#444444" opacity="0.6" />
    <rect x="222" y="0" width="1" height="500" fill="#000000" opacity="0.8" />
    
    <!-- Barra 5 (centro) -->
    <rect x="285" y="0" width="16" height="500" fill="#111111" />
    <rect x="287" y="0" width="4" height="500" fill="#444444" opacity="0.6" />
    <rect x="282" y="0" width="1" height="500" fill="#000000" opacity="0.8" />
    
    <!-- Barra 6 -->
    <rect x="345" y="0" width="14" height="500" fill="#1a1a1a" />
    <rect x="347" y="0" width="3" height="500" fill="#444444" opacity="0.6" />
    <rect x="342" y="0" width="1" height="500" fill="#000000" opacity="0.8" />
    
    <!-- Barra 7 -->
    <rect x="405" y="0" width="14" height="500" fill="#111111" />
    <rect x="407" y="0" width="3" height="500" fill="#444444" opacity="0.6" />
    <rect x="402" y="0" width="1" height="500" fill="#000000" opacity="0.8" />
    
    <!-- Barra 8 -->
    <rect x="465" y="0" width="14" height="500" fill="#1a1a1a" />
    <rect x="467" y="0" width="3" height="500" fill="#444444" opacity="0.6" />
    <rect x="462" y="0" width="1" height="500" fill="#000000" opacity="0.8" />
  </g>
  
  <!-- Barras horizontales -->
  <g>
    <!-- Barra superior -->
    <rect x="0" y="90" width="500" height="12" fill="#111111" />
    <rect x="0" y="92" width="500" height="3" fill="#444444" opacity="0.6" />
    <rect x="0" y="88" width="500" height="1" fill="#000000" opacity="0.8" />
    
    <!-- Barra media -->
    <rect x="0" y="240" width="500" height="14" fill="#1a1a1a" />
    <rect x="0" y="242" width="500" height="3" fill="#444444" opacity="0.6" />
    <rect x="0" y="238" width="500" height="1" fill="#000000" opacity="0.8" />
    
    <!-- Barra inferior -->
    <rect x="0" y="390" width="500" height="12" fill="#111111" />
    <rect x="0" y="392" width="500" height="3" fill="#444444" opacity="0.6" />
    <rect x="0" y="388" width="500" height="1" fill="#000000" opacity="0.8" />
  </g>
  
  <!-- Remaches en las uniones (detalles realistas) -->
  <g fill="#333333" stroke="#222222" stroke-width="1">
    <!-- Remaches en cruces de barras -->
    <!-- Fila superior -->
    <circle cx="52" cy="96" r="4" />
    <circle cx="112" cy="96" r="4" />
    <circle cx="172" cy="96" r="4" />
    <circle cx="232" cy="96" r="4" />
    <circle cx="292" cy="96" r="4" />
    <circle cx="352" cy="96" r="4" />
    <circle cx="412" cy="96" r="4" />
    <circle cx="472" cy="96" r="4" />
    
    <!-- Fila media -->
    <circle cx="52" cy="247" r="4" />
    <circle cx="112" cy="247" r="4" />
    <circle cx="172" cy="247" r="4" />
    <circle cx="232" cy="247" r="4" />
    <circle cx="292" cy="247" r="4" />
    <circle cx="352" cy="247" r="4" />
    <circle cx="412" cy="247" r="4" />
    <circle cx="472" cy="247" r="4" />
    
    <!-- Fila inferior -->
    <circle cx="52" cy="396" r="4" />
    <circle cx="112" cy="396" r="4" />
    <circle cx="172" cy="396" r="4" />
    <circle cx="232" cy="396" r="4" />
    <circle cx="292" cy="396" r="4" />
    <circle cx="352" cy="396" r="4" />
    <circle cx="412" cy="396" r="4" />
    <circle cx="472" cy="396" r="4" />
  </g>
  
  <!-- Brillos en los remaches -->
  <g fill="#ffffff" opacity="0.7">
    <!-- Brillos peque침os en los remaches -->
    <circle cx="50" cy="94" r="1" />
    <circle cx="110" cy="94" r="1" />
    <circle cx="170" cy="94" r="1" />
    <circle cx="230" cy="94" r="1" />
    <circle cx="290" cy="94" r="1" />
    <circle cx="350" cy="94" r="1" />
    <circle cx="410" cy="94" r="1" />
    <circle cx="470" cy="94" r="1" />
    
    <circle cx="50" cy="245" r="1" />
    <circle cx="110" cy="245" r="1" />
    <circle cx="170" cy="245" r="1" />
    <circle cx="230" cy="245" r="1" />
    <circle cx="290" cy="245" r="1" />
    <circle cx="350" cy="245" r="1" />
    <circle cx="410" cy="245" r="1" />
    <circle cx="470" cy="245" r="1" />
    
    <circle cx="50" cy="394" r="1" />
    <circle cx="110" cy="394" r="1" />
    <circle cx="170" cy="394" r="1" />
    <circle cx="230" cy="394" r="1" />
    <circle cx="290" cy="394" r="1" />
    <circle cx="350" cy="394" r="1" />
    <circle cx="410" cy="394" r="1" />
    <circle cx="470" cy="394" r="1" />
  </g>
  
  <!-- Sombra proyectada en el suelo -->
  <rect x="0" y="480" width="500" height="20" fill="#000000" opacity="0.3" />
</svg>
