<svg xmlns="http://www.w3.org/2000/svg" viewBox="0 0 600 600">
  <!-- Fondo de celda texturizado -->
  <defs>
    <pattern id="wallPattern" patternUnits="userSpaceOnUse" width="100" height="50" patternTransform="scale(0.5)">
      <rect width="100" height="50" fill="#232323"/>
      <rect width="90" height="40" x="5" y="5" rx="2" ry="2" fill="#1c1c1c" stroke="#181818" stroke-width="1"/>
    </pattern>
    
    <!-- Gradiente para efecto met치lico en barras -->
    <linearGradient id="metalBar" x1="0%" y1="0%" x2="100%" y2="0%">
      <stop offset="0%" stop-color="#666666"/>
      <stop offset="45%" stop-color="#333333"/>
      <stop offset="55%" stop-color="#111111"/>
      <stop offset="100%" stop-color="#444444"/>
    </linearGradient>
    
    <!-- Brillo para barras -->
    <linearGradient id="barHighlight" x1="0%" y1="0%" x2="100%" y2="0%">
      <stop offset="0%" stop-color="rgba(255,255,255,0)"/>
      <stop offset="45%" stop-color="rgba(255,255,255,0.15)"/>
      <stop offset="55%" stop-color="rgba(255,255,255,0.2)"/>
      <stop offset="100%" stop-color="rgba(255,255,255,0)"/>
    </linearGradient>
    
    <!-- Filtro para sombra -->
    <filter id="barShadow" x="-20%" y="-20%" width="140%" height="140%">
      <feGaussianBlur in="SourceAlpha" stdDeviation="3"/>
      <feOffset dx="2" dy="2" result="offsetblur"/>
      <feComponentTransfer>
        <feFuncA type="linear" slope="0.5"/>
      </feComponentTransfer>
      <feMerge>
        <feMergeNode/>
        <feMergeNode in="SourceGraphic"/>
      </feMerge>
    </filter>
    
    <!-- Efecto de oxidaci칩n y metal da침ado -->
    <filter id="rustEffect">
      <feTurbulence baseFrequency="0.05" numOctaves="2" seed="5"/>
      <feDisplacementMap in="SourceGraphic" scale="5"/>
    </filter>
  </defs>
  
  <!-- Fondo de pared -->
  <rect width="600" height="600" fill="url(#wallPattern)"/>
  
  <!-- Barras verticales principales con efectos -->
  <g filter="url(#barShadow)">
    <!-- Barras verticales -->
    <rect x="50" y="0" width="16" height="600" fill="url(#metalBar)" rx="2"/>
    <rect x="53" y="0" width="4" height="600" fill="url(#barHighlight)" opacity="0.5"/>
    
    <rect x="130" y="0" width="14" height="600" fill="url(#metalBar)" rx="2"/>
    <rect x="133" y="0" width="3" height="600" fill="url(#barHighlight)" opacity="0.5"/>
    
    <rect x="210" y="0" width="14" height="600" fill="url(#metalBar)" rx="2"/>
    <rect x="213" y="0" width="3" height="600" fill="url(#barHighlight)" opacity="0.5"/>
    
    <rect x="290" y="0" width="16" height="600" fill="url(#metalBar)" rx="2"/>
    <rect x="293" y="0" width="4" height="600" fill="url(#barHighlight)" opacity="0.5"/>
    
    <rect x="370" y="0" width="14" height="600" fill="url(#metalBar)" rx="2"/>
    <rect x="373" y="0" width="3" height="600" fill="url(#barHighlight)" opacity="0.5"/>
    
    <rect x="450" y="0" width="14" height="600" fill="url(#metalBar)" rx="2"/>
    <rect x="453" y="0" width="3" height="600" fill="url(#barHighlight)" opacity="0.5"/>
    
    <rect x="530" y="0" width="16" height="600" fill="url(#metalBar)" rx="2"/>
    <rect x="533" y="0" width="4" height="600" fill="url(#barHighlight)" opacity="0.5"/>
  </g>
  
  <!-- Remaches en las intersecciones -->
  <g>
    <!-- Primera barra horizontal -->
    <circle cx="50" cy="120" r="6" fill="#444" stroke="#333" stroke-width="1"/>
    <circle cx="130" cy="120" r="5" fill="#444" stroke="#333" stroke-width="1"/>
    <circle cx="210" cy="120" r="5" fill="#444" stroke="#333" stroke-width="1"/>
    <circle cx="290" cy="120" r="6" fill="#444" stroke="#333" stroke-width="1"/>
    <circle cx="370" cy="120" r="5" fill="#444" stroke="#333" stroke-width="1"/>
    <circle cx="450" cy="120" r="5" fill="#444" stroke="#333" stroke-width="1"/>
    <circle cx="530" cy="120" r="6" fill="#444" stroke="#333" stroke-width="1"/>
    
    <!-- Segunda barra horizontal -->
    <circle cx="50" cy="300" r="6" fill="#444" stroke="#333" stroke-width="1"/>
    <circle cx="130" cy="300" r="5" fill="#444" stroke="#333" stroke-width="1"/>
    <circle cx="210" cy="300" r="5" fill="#444" stroke="#333" stroke-width="1"/>
    <circle cx="290" cy="300" r="6" fill="#444" stroke="#333" stroke-width="1"/>
    <circle cx="370" cy="300" r="5" fill="#444" stroke="#333" stroke-width="1"/>
    <circle cx="450" cy="300" r="5" fill="#444" stroke="#333" stroke-width="1"/>
    <circle cx="530" cy="300" r="6" fill="#444" stroke="#333" stroke-width="1"/>
    
    <!-- Tercera barra horizontal -->
    <circle cx="50" cy="480" r="6" fill="#444" stroke="#333" stroke-width="1"/>
    <circle cx="130" cy="480" r="5" fill="#444" stroke="#333" stroke-width="1"/>
    <circle cx="210" cy="480" r="5" fill="#444" stroke="#333" stroke-width="1"/>
    <circle cx="290" cy="480" r="6" fill="#444" stroke="#333" stroke-width="1"/>
    <circle cx="370" cy="480" r="5" fill="#444" stroke="#333" stroke-width="1"/>
    <circle cx="450" cy="480" r="5" fill="#444" stroke="#333" stroke-width="1"/>
    <circle cx="530" cy="480" r="6" fill="#444" stroke="#333" stroke-width="1"/>
  </g>
  
  <!-- Barras horizontales principales -->
  <g filter="url(#barShadow)">
    <rect x="0" y="120" width="600" height="12" fill="url(#metalBar)" rx="2"/>
    <rect x="0" y="122" width="600" height="3" fill="url(#barHighlight)" opacity="0.5"/>
    
    <rect x="0" y="300" width="600" height="14" fill="url(#metalBar)" rx="2"/>
    <rect x="0" y="302" width="600" height="4" fill="url(#barHighlight)" opacity="0.5"/>
    
    <rect x="0" y="480" width="600" height="12" fill="url(#metalBar)" rx="2"/>
    <rect x="0" y="482" width="600" height="3" fill="url(#barHighlight)" opacity="0.5"/>
  </g>
  
  <!-- Puntos de 칩xido en algunas secciones -->
  <g opacity="0.5" filter="url(#rustEffect)">
    <circle cx="50" cy="200" r="8" fill="#8B4513"/>
    <circle cx="370" cy="350" r="7" fill="#8B4513"/>
    <circle cx="530" cy="150" r="9" fill="#8B4513"/>
    <circle cx="210" cy="400" r="6" fill="#8B4513"/>
    <circle cx="290" cy="500" r="10" fill="#8B4513"/>
  </g>
  
  <!-- Efecto de luz ambiental -->
  <rect width="600" height="600" fill="url(#radialGradient)" style="mix-blend-mode: overlay;" opacity="0.2">
    <animate attributeName="opacity" values="0.2;0.25;0.2" dur="5s" repeatCount="indefinite"/>
  </rect>
  
  <!-- Sombreado sutil para profundidad -->
  <rect x="0" y="0" width="600" height="600" fill="none" style="filter: drop-shadow(0px 0px 10px rgba(0,0,0,0.8));"/>
</svg>
